<svg width="34" height="32" viewBox="0 0 34 32" fill="none" xmlns="http://www.w3.org/2000/svg">
<path d="M16.6954 0C7.47119 0 0 7.34598 0 16.406C0 23.656 4.78323 29.8041 11.4155 31.9717C12.2503 32.1261 12.5563 31.6183 12.5563 31.1828C12.5563 30.7933 12.5424 29.7609 12.5355 28.3933C7.89136 29.3825 6.9119 26.1923 6.9119 26.1923C6.15226 24.2988 5.05453 23.7923 5.05453 23.7923C3.54221 22.7753 5.1714 22.7962 5.1714 22.7962C6.8479 22.9103 7.72858 24.4866 7.72858 24.4866C9.21725 26.9951 11.6367 26.2702 12.5911 25.8514C12.7414 24.7899 13.1713 24.0678 13.6485 23.6574C9.94072 23.247 6.04374 21.8362 6.04374 15.5504C6.04374 13.7598 6.69068 12.2962 7.76197 11.1484C7.57415 10.7338 7.01068 9.0656 7.90806 6.80616C7.90806 6.80616 9.3063 6.36651 12.4993 8.48822C13.8349 8.1237 15.254 7.94284 16.6731 7.93449C18.0923 7.94284 19.5114 8.1237 20.847 8.48822C24.0191 6.36651 25.4174 6.80616 25.4174 6.80616C26.3147 9.0656 25.7513 10.7338 25.5843 11.1484C26.6486 12.2962 27.2956 13.7598 27.2956 15.5504C27.2956 21.8529 23.393 23.24 19.6783 23.6435C20.2627 24.136 20.8053 25.1419 20.8053 26.6793C20.8053 28.8747 20.7844 30.6388 20.7844 31.1717C20.7844 31.6016 21.0766 32.115 21.9322 31.9508C28.6117 29.7971 33.3908 23.6449 33.3908 16.406C33.3908 7.34598 25.9154 0 16.6954 0Z" fill="#C1666B"/>
</svg>
