<svg width="33" height="32" viewBox="0 0 33 32" fill="none" xmlns="http://www.w3.org/2000/svg">
<path d="M24.3907 0H8.39075C3.99114 0 0.390747 3.60039 0.390747 8V24.0008C0.390747 28.3992 3.99114 32.0008 8.39075 32.0008H24.3907C28.7904 32.0008 32.3907 28.3992 32.3907 24.0008V8C32.3907 3.60039 28.7904 0 24.3907 0ZM29.7239 24.0008C29.7239 26.9408 27.3324 29.334 24.3907 29.334H8.39075C5.45036 29.334 3.05754 26.9408 3.05754 24.0008V8C3.05754 5.05922 5.45036 2.6668 8.39075 2.6668H24.3907C27.3324 2.6668 29.7239 5.05922 29.7239 8V24.0008Z" fill="#C1666B"/>
<path d="M25.0587 9.33321C26.1633 9.33321 27.0587 8.43778 27.0587 7.33321C27.0587 6.22864 26.1633 5.33321 25.0587 5.33321C23.9541 5.33321 23.0587 6.22864 23.0587 7.33321C23.0587 8.43778 23.9541 9.33321 25.0587 9.33321Z" fill="#C1666B"/>
<path d="M16.3907 8C11.9715 8 8.39075 11.5812 8.39075 16C8.39075 20.4172 11.9715 24.0008 16.3907 24.0008C20.8087 24.0008 24.3907 20.4172 24.3907 16C24.3907 11.5812 20.8087 8 16.3907 8ZM16.3907 21.334C13.4455 21.334 11.0575 18.946 11.0575 16C11.0575 13.054 13.4455 10.6668 16.3907 10.6668C19.336 10.6668 21.7239 13.054 21.7239 16C21.7239 18.946 19.336 21.334 16.3907 21.334Z" fill="#C1666B"/>
</svg>
