<svg width="33" height="32" viewBox="0 0 33 32" fill="none" xmlns="http://www.w3.org/2000/svg">
<path d="M28.0272 0H4.75444C3.59714 0 2.48723 0.459739 1.66889 1.27808C0.850547 2.09642 0.390808 3.20633 0.390808 4.36364L0.390808 27.6364C0.390808 28.7937 0.850547 29.9036 1.66889 30.7219C2.48723 31.5403 3.59714 32 4.75444 32H28.0272C29.1845 32 30.2944 31.5403 31.1127 30.7219C31.9311 29.9036 32.3908 28.7937 32.3908 27.6364V4.36364C32.3908 3.20633 31.9311 2.09642 31.1127 1.27808C30.2944 0.459739 29.1845 0 28.0272 0ZM11.2999 25.3236C11.3001 25.4124 11.2829 25.5003 11.2491 25.5823C11.2153 25.6644 11.1656 25.739 11.103 25.8018C11.0403 25.8646 10.9659 25.9145 10.8839 25.9485C10.802 25.9825 10.7141 26 10.6254 26H7.75081C7.66192 26.0002 7.57386 25.9829 7.49169 25.949C7.40952 25.9151 7.33487 25.8653 7.27201 25.8024C7.20916 25.7396 7.15935 25.6649 7.12544 25.5828C7.09154 25.5006 7.0742 25.4125 7.07444 25.3236V13.2727C7.07444 13.0933 7.1457 12.9213 7.27255 12.7945C7.39939 12.6676 7.57143 12.5964 7.75081 12.5964H10.6254C10.8044 12.5968 10.976 12.6683 11.1024 12.7951C11.2289 12.9219 11.2999 13.0937 11.2999 13.2727V25.3236ZM9.18717 11.4545C8.64777 11.4545 8.12048 11.2946 7.67198 10.9949C7.22348 10.6952 6.87392 10.2693 6.6675 9.77096C6.46108 9.27261 6.40707 8.72425 6.5123 8.19521C6.61754 7.66617 6.87728 7.18022 7.2587 6.7988C7.64012 6.41738 8.12607 6.15764 8.65511 6.0524C9.18415 5.94717 9.73251 6.00118 10.2309 6.2076C10.7292 6.41402 11.1551 6.76358 11.4548 7.21208C11.7545 7.66058 11.9144 8.18787 11.9144 8.72727C11.9144 9.45059 11.6271 10.1443 11.1156 10.6557C10.6042 11.1672 9.91049 11.4545 9.18717 11.4545ZM26.3254 25.3709C26.3256 25.4526 26.3097 25.5336 26.2785 25.6092C26.2473 25.6847 26.2016 25.7533 26.1438 25.8111C26.086 25.8689 26.0173 25.9147 25.9418 25.9459C25.8662 25.977 25.7853 25.993 25.7035 25.9927H22.6126C22.5309 25.993 22.4499 25.977 22.3744 25.9459C22.2988 25.9147 22.2302 25.8689 22.1724 25.8111C22.1146 25.7533 22.0688 25.6847 22.0377 25.6092C22.0065 25.5336 21.9906 25.4526 21.9908 25.3709V19.7255C21.9908 18.8818 22.2381 16.0309 19.7854 16.0309C17.8854 16.0309 17.4981 17.9818 17.4217 18.8582V25.3782C17.4217 25.5415 17.3575 25.6983 17.2428 25.8147C17.1282 25.931 16.9723 25.9976 16.809 26H13.8235C13.742 26 13.6612 25.9839 13.5859 25.9526C13.5105 25.9214 13.4421 25.8755 13.3845 25.8178C13.3269 25.76 13.2813 25.6914 13.2502 25.616C13.2192 25.5406 13.2033 25.4598 13.2035 25.3782V13.22C13.2033 13.1384 13.2192 13.0576 13.2502 12.9822C13.2813 12.9067 13.3269 12.8382 13.3845 12.7804C13.4421 12.7227 13.5105 12.6768 13.5859 12.6455C13.6612 12.6143 13.742 12.5982 13.8235 12.5982H16.809C16.9739 12.5982 17.1321 12.6637 17.2487 12.7803C17.3653 12.8969 17.4308 13.0551 17.4308 13.22V14.2709C18.1363 13.2109 19.1817 12.3964 21.4126 12.3964C26.3544 12.3964 26.3217 17.0109 26.3217 19.5455L26.3254 25.3709Z" fill="#C1666B"/>
</svg>
