<svg width="33" height="32" viewBox="0 0 33 32" fill="none" xmlns="http://www.w3.org/2000/svg">
<path d="M28.933 32H3.84858C1.93893 32 0.390808 30.4519 0.390808 28.5422V3.45777C0.390808 1.54813 1.93893 0 3.84858 0H28.933C30.8427 0 32.3907 1.54813 32.3907 3.45777V28.5422C32.3908 30.4519 30.8427 32 28.933 32Z" fill="#C1666B"/>
<path d="M28.933 32H3.84858C1.93893 32 0.390808 30.4519 0.390808 28.5422V3.45777C0.390808 1.54813 1.93893 0 3.84858 0H28.933C30.8427 0 32.3907 1.54813 32.3907 3.45777V28.5422C32.3908 30.4519 30.8427 32 28.933 32Z" fill="#C1666B"/>
<path d="M17.9464 16C17.9464 19.8084 14.8801 22.8957 11.0976 22.8957C7.31513 22.8957 4.24878 19.8084 4.24878 16C4.24878 12.1915 7.31507 9.10422 11.0976 9.10422C14.88 9.10422 17.9464 12.1915 17.9464 16ZM25.4597 16C25.4597 19.585 23.9265 22.4911 22.0353 22.4911C20.1441 22.4911 18.6109 19.585 18.6109 16C18.6109 12.415 20.1441 9.50881 22.0353 9.50881C23.9265 9.50881 25.4597 12.415 25.4597 16ZM28.5329 16C28.5329 19.212 27.9936 21.8158 27.3285 21.8158C26.6633 21.8158 26.1241 19.212 26.1241 16C26.1241 12.788 26.6633 10.1841 27.3285 10.1841C27.9937 10.1841 28.5329 12.788 28.5329 16Z" fill="#FAF4EE"/>
</svg>
